<svg width="40" height="40" viewBox="0 0 40 40" fill="none" xmlns="http://www.w3.org/2000/svg">
<path fill-rule="evenodd" clip-rule="evenodd" d="M38 20C38 29.9411 29.9411 38 20 38C16.9442 38 14.0663 37.2385 11.5456 35.895C12.0204 35.9642 12.506 36 13 36C18.5228 36 23 31.5228 23 26C23 20.4772 18.5228 16 13 16C7.49996 16 3.03699 20.4403 3.00023 25.9316C2.35222 24.0743 2 22.0783 2 20C2 10.0589 10.0589 2 20 2C29.9411 2 38 10.0589 38 20ZM40 20C40 31.0457 31.0457 40 20 40C8.9543 40 0 31.0457 0 20C0 8.9543 8.9543 0 20 0C31.0457 0 40 8.9543 40 20Z" fill="#FFD011"/>
</svg>
